<svg width="20" height="20" viewBox="0 0 20 20" fill="none" xmlns="http://www.w3.org/2000/svg">
<g clip-path="url(#clip0_196_30)">
<path d="M5.23636 3.91781L3.6 2.2831L2.31818 3.57078L3.94545 5.20548L5.23636 3.91781ZM0 9.08676H2.72727V10.9132H0V9.08676ZM9.09091 0H10.9091V2.69406H9.09091V0ZM16.4 2.27854L17.68 3.56347L16.0527 5.19817L14.7736 3.91233L16.4 2.27854ZM14.7636 16.0822L16.3909 17.726L17.6727 16.4384L16.0364 14.8037L14.7636 16.0822ZM17.2727 9.08676H20V10.9132H17.2727V9.08676ZM10 4.52055C6.99091 4.52055 4.54545 6.97717 4.54545 10C4.54545 13.0228 6.99091 15.4795 10 15.4795C13.0091 15.4795 15.4545 13.0228 15.4545 10C15.4545 6.97717 13.0091 4.52055 10 4.52055ZM10 13.653C7.99091 13.653 6.36364 12.0183 6.36364 10C6.36364 7.98173 7.99091 6.34703 10 6.34703C12.0091 6.34703 13.6364 7.98173 13.6364 10C13.6364 12.0183 12.0091 13.653 10 13.653ZM9.09091 17.3059H10.9091V20H9.09091V17.3059ZM2.31818 16.4292L3.6 17.7169L5.22727 16.0731L3.94545 14.7854L2.31818 16.4292Z" fill="#8E8E8E"/>
</g>
<defs>
<clipPath id="clip0_196_30">
<rect width="20" height="20" fill="white"/>
</clipPath>
</defs>
</svg>
